<?xml version="1.0" encoding="utf-8"?>
<!-- Generator: Adobe Illustrator 23.0.1, SVG Export Plug-In . SVG Version: 6.00 Build 0)  -->
<svg version="1.1" id="Layer_1" xmlns="http://www.w3.org/2000/svg" xmlns:xlink="http://www.w3.org/1999/xlink" x="0px" y="0px"
	 viewBox="0 0 333.96 107.23" style="enable-background:new 0 0 333.96 107.23;" xml:space="preserve">
<style type="text/css">
	.st0{fill:#000000;}
</style>
<g>
	<g>
		<path class="st0" d="M219.63,78.86l1.44,2.44c0.29,0.34,0.2,0.57-0.14,0.83c-1.63,1.23-3.65,2.01-6.22,2.01
			c-6.08,0-11.02-4.91-11.02-10.99c0-6.08,4.93-10.93,11.02-10.93c2.58,0,4.59,0.77,6.25,1.98c0.29,0.26,0.26,0.58,0.17,0.72
			l-1.52,2.58c-0.17,0.23-0.46,0.23-0.8,0.03c-1.35-0.83-2.56-1.32-4.1-1.32c-3.87,0-6.77,3.04-6.77,6.94c0,3.87,2.9,7.05,6.77,7.05
			c1.55,0,3.01-0.58,4.01-1.35C219.06,78.6,219.38,78.55,219.63,78.86z"/>
		<path class="st0" d="M224.97,63.11c0-0.37,0.17-0.57,0.54-0.57h14.03c0.37,0,0.57,0.2,0.57,0.57v2.78c0,0.37-0.2,0.57-0.57,0.57
			h-10.38v4.33h7.92c0.37,0,0.63,0.17,0.63,0.58v2.72c0,0.37-0.23,0.57-0.63,0.57h-7.92v5.25h10.64c0.37,0,0.61,0.2,0.61,0.57v2.75
			c0,0.37-0.23,0.57-0.61,0.57h-14.28c-0.37,0-0.54-0.2-0.54-0.57L224.97,63.11L224.97,63.11L224.97,63.11z"/>
		<path class="st0" d="M243.39,63.17c0-0.34,0.2-0.63,0.63-0.63h3.36c0.29,0,0.69,0.14,0.83,0.43l9.44,13.57V62.97
			c0.11-0.34,0.4-0.43,0.63-0.43h2.9c0.29,0,0.69,0.26,0.69,0.63v20.02c0,0.43-0.23,0.63-0.69,0.63h-2.84
			c-0.46,0-0.61-0.2-0.83-0.46l-9.95-14.34V83.2c0.03,0.43-0.17,0.63-0.63,0.63h-2.9c-0.43,0-0.63-0.2-0.63-0.63L243.39,63.17
			L243.39,63.17z"/>
		<path class="st0" d="M264.41,63.08c0-0.37,0.17-0.54,0.54-0.54h15.06c0.37,0,0.57,0.17,0.57,0.54v2.72c0,0.37-0.2,0.57-0.57,0.57
			h-5.51v16.87c0,0.37-0.17,0.57-0.54,0.57h-3.1c-0.37,0-0.54-0.2-0.54-0.57V66.37h-5.36c-0.37,0-0.54-0.2-0.54-0.57L264.41,63.08
			L264.41,63.08z"/>
		<path class="st0" d="M283.66,63.11c0-0.37,0.17-0.57,0.54-0.57h14.03c0.37,0,0.58,0.2,0.58,0.57v2.78c0,0.37-0.2,0.57-0.58,0.57
			h-10.38v4.33h7.92c0.37,0,0.63,0.17,0.63,0.58v2.72c0,0.37-0.23,0.57-0.63,0.57h-7.92v5.25h10.64c0.37,0,0.61,0.2,0.61,0.57v2.75
			c0,0.37-0.23,0.57-0.61,0.57h-14.28c-0.37,0-0.54-0.2-0.54-0.57L283.66,63.11L283.66,63.11L283.66,63.11z"/>
		<path class="st0" d="M302.08,63.11c0-0.32,0.17-0.57,0.54-0.57h9.12c3.93,0,6.74,3.39,6.74,7c0,2.41-1.46,4.67-3.61,5.93l3.9,7.74
			c0.14,0.26,0,0.61-0.37,0.61h-3.7c-0.32,0-0.49-0.11-0.66-0.49l-3.41-6.88h-4.36v6.8c0,0.37-0.17,0.57-0.57,0.57h-3.07
			c-0.37,0-0.54-0.2-0.54-0.57L302.08,63.11L302.08,63.11z M306.26,66.24v6.43h4.48c1.98,0,3.47-1.35,3.47-3.21
			c0-1.81-1.49-3.21-3.47-3.21L306.26,66.24L306.26,66.24z"/>
	</g>
	<g>
		<g>
			<path class="st0" d="M136.39,38.09c0-0.37,0.2-0.61,0.57-0.61h3.1c0.37,0,0.54,0.23,0.54,0.61V58.2c0,0.37-0.17,0.57-0.54,0.57
				h-3.1c-0.4,0-0.57-0.2-0.57-0.57V38.09z"/>
			<path class="st0" d="M145.25,38.13c0-0.34,0.2-0.63,0.63-0.63h3.36c0.29,0,0.69,0.14,0.83,0.43l9.44,13.57V37.93
				c0.11-0.34,0.4-0.43,0.63-0.43h2.9c0.29,0,0.69,0.26,0.69,0.63v20.02c0,0.43-0.23,0.63-0.69,0.63h-2.84
				c-0.46,0-0.61-0.2-0.83-0.46l-9.95-14.34v14.17c0.03,0.43-0.17,0.63-0.63,0.63h-2.9c-0.43,0-0.63-0.2-0.63-0.63L145.25,38.13
				L145.25,38.13L145.25,38.13z"/>
			<path class="st0" d="M168,38.13c0-0.34,0.2-0.63,0.63-0.63H172c0.29,0,0.69,0.14,0.83,0.43l9.44,13.57V37.93
				c0.11-0.34,0.4-0.43,0.63-0.43h2.9c0.29,0,0.69,0.26,0.69,0.63v20.02c0,0.43-0.23,0.63-0.69,0.63h-2.84
				c-0.46,0-0.61-0.2-0.83-0.46l-9.98-14.35v14.17c0.03,0.43-0.17,0.63-0.63,0.63h-2.9c-0.43,0-0.63-0.2-0.63-0.63V38.13L168,38.13
				L168,38.13z"/>
			<path class="st0" d="M200.59,59.07c-6.05,0-10.9-4.88-10.9-10.93c0-6.08,4.85-10.96,10.9-10.96c6.05,0,10.99,4.88,10.99,10.96
				C211.57,54.19,206.64,59.07,200.59,59.07z M200.59,41.2c-3.84,0-6.72,3.07-6.72,6.94c0,3.84,2.87,6.91,6.72,6.91
				c3.87,0,6.77-3.07,6.77-6.91C207.36,44.27,204.46,41.2,200.59,41.2z"/>
			<path class="st0" d="M222.91,58.26c-0.14,0.37-0.4,0.54-0.72,0.54h-2.41c-0.34,0-0.61-0.17-0.75-0.54l-7.92-20.17
				c-0.17-0.4,0.03-0.61,0.37-0.61h3.27c0.34,0,0.57,0.14,0.72,0.54l5.48,14.86l5.48-14.85c0.11-0.37,0.37-0.54,0.69-0.54h3.33
				c0.34,0,0.54,0.23,0.37,0.63L222.91,58.26z"/>
			<path class="st0" d="M236.18,38.04c0.17-0.37,0.43-0.54,0.72-0.54h2.41c0.32,0,0.57,0.17,0.72,0.54l8.09,20.14
				c0.17,0.37-0.03,0.61-0.4,0.61h-3.13c-0.34,0-0.58-0.14-0.72-0.51l-1.38-3.44h-8.81l-1.35,3.44c-0.14,0.37-0.4,0.51-0.72,0.51
				h-3.15c-0.37,0-0.54-0.2-0.37-0.61L236.18,38.04z M235.04,51.12h6.08L238.11,43L235.04,51.12z"/>
			<path class="st0" d="M246,38.04c0-0.37,0.17-0.54,0.54-0.54h15.06c0.37,0,0.57,0.17,0.57,0.54v2.72c0,0.37-0.2,0.58-0.57,0.58
				h-5.51v16.87c0,0.37-0.17,0.57-0.54,0.57h-3.1c-0.37,0-0.54-0.2-0.54-0.57V41.34h-5.36c-0.37,0-0.54-0.2-0.54-0.58L246,38.04
				L246,38.04z"/>
			<path class="st0" d="M265.24,38.09c0-0.37,0.2-0.61,0.57-0.61h3.1c0.37,0,0.54,0.23,0.54,0.61V58.2c0,0.37-0.17,0.57-0.54,0.57
				h-3.1c-0.4,0-0.57-0.2-0.57-0.57V38.09z"/>
			<path class="st0" d="M283.95,59.07c-6.05,0-10.9-4.88-10.9-10.93c0-6.08,4.85-10.96,10.9-10.96s10.99,4.88,10.99,10.96
				C294.94,54.19,290,59.07,283.95,59.07z M283.95,41.2c-3.84,0-6.72,3.07-6.72,6.94c0,3.84,2.87,6.91,6.72,6.91
				c3.87,0,6.77-3.07,6.77-6.91C290.72,44.27,287.82,41.2,283.95,41.2z"/>
			<path class="st0" d="M298.58,38.13c0-0.34,0.2-0.63,0.63-0.63h3.36c0.29,0,0.69,0.14,0.83,0.43l9.44,13.57V37.93
				c0.11-0.34,0.4-0.43,0.63-0.43h2.9c0.29,0,0.69,0.26,0.69,0.63v20.02c0,0.43-0.23,0.63-0.69,0.63h-2.84
				c-0.46,0-0.61-0.2-0.83-0.46l-9.95-14.34v14.17c0.03,0.43-0.17,0.63-0.63,0.63h-2.9c-0.43,0-0.63-0.2-0.63-0.63L298.58,38.13
				L298.58,38.13L298.58,38.13z"/>
		</g>
	</g>
	<g>
		<g>
			<path class="st0" d="M228.1,16.83c0-0.27,0.14-0.41,0.41-0.41h4.88c3.86,0,7.65,3.31,7.65,7.57c0,4.08-3.33,7.43-7.57,7.57h-4.96
				c-0.27,0-0.41-0.14-0.41-0.41L228.1,16.83L228.1,16.83z M233.11,19.17h-2.02v9.64h2.02c2.79,0,4.92-2.14,4.92-4.82
				S235.92,19.17,233.11,19.17z"/>
			<path class="st0" d="M243.3,16.83c0-0.27,0.12-0.41,0.39-0.41h9.99c0.27,0,0.41,0.14,0.41,0.41v1.98c0,0.27-0.14,0.41-0.41,0.41
				h-7.39v3.08h5.63c0.27,0,0.45,0.12,0.45,0.41v1.94c0,0.27-0.16,0.41-0.45,0.41h-5.63v3.74h7.57c0.27,0,0.43,0.14,0.43,0.41v1.96
				c0,0.27-0.16,0.41-0.43,0.41H243.7c-0.27,0-0.39-0.14-0.39-0.41L243.3,16.83L243.3,16.83L243.3,16.83z"/>
			<path class="st0" d="M269.86,31.2c-0.11,0.27-0.29,0.39-0.51,0.39h-1.72c-0.25,0-0.43-0.12-0.53-0.39l-5.63-14.35
				c-0.12-0.29,0.02-0.43,0.27-0.43h2.33c0.25,0,0.41,0.1,0.51,0.39l3.9,10.57l3.9-10.57c0.08-0.27,0.27-0.39,0.49-0.39h2.37
				c0.25,0,0.39,0.16,0.27,0.45L269.86,31.2z"/>
			<path class="st0" d="M277.46,16.84c0-0.27,0.14-0.43,0.41-0.43h2.2c0.27,0,0.39,0.16,0.39,0.43v14.31c0,0.27-0.12,0.41-0.39,0.41
				h-2.2c-0.29,0-0.41-0.14-0.41-0.41V16.84z"/>
			<path class="st0" d="M283.77,16.86c0-0.25,0.14-0.45,0.45-0.45h2.39c0.2,0,0.49,0.1,0.59,0.3l6.72,9.66v-9.66
				c0.08-0.25,0.29-0.3,0.45-0.3h2.06c0.2,0,0.49,0.18,0.49,0.45v14.25c0,0.3-0.16,0.45-0.49,0.45h-2.02
				c-0.32,0-0.43-0.14-0.59-0.32l-7.08-10.21v10.09c0.02,0.3-0.12,0.45-0.45,0.45h-2.06c-0.3,0-0.45-0.14-0.45-0.45L283.77,16.86
				L283.77,16.86z"/>
			<path class="st0" d="M310.55,28.04l1.02,1.73c0.2,0.25,0.14,0.41-0.11,0.59c-1.16,0.88-2.59,1.43-4.43,1.43
				c-4.33,0-7.84-3.49-7.84-7.82s3.51-7.78,7.84-7.78c1.84,0,3.27,0.55,4.45,1.41c0.2,0.18,0.18,0.41,0.12,0.51l-1.08,1.84
				c-0.12,0.16-0.32,0.16-0.57,0.02c-0.96-0.59-1.82-0.94-2.92-0.94c-2.75,0-4.82,2.16-4.82,4.94c0,2.75,2.06,5.02,4.82,5.02
				c1.11,0,2.14-0.41,2.86-0.96C310.14,27.85,310.37,27.81,310.55,28.04z"/>
			<path class="st0" d="M314.35,16.84c0-0.27,0.14-0.43,0.41-0.43h2.2c0.27,0,0.39,0.16,0.39,0.43v14.31c0,0.27-0.12,0.41-0.39,0.41
				h-2.2c-0.29,0-0.41-0.14-0.41-0.41V16.84z"/>
		</g>
	</g>
</g>
<g>
	<path class="st0" d="M116.26,43.11l-0.01-0.04l-13.79-17.91l-0.05-0.06l-14.7-6.96l-0.13-0.06l-21.3-4.13l-22.32,5.13l-13.6,4.01
		l-0.09,0.03l-8,9.17l-6.25,4.79l-1.47,12.68l4.24,15.44l13.08,7.28l9.02-2.1l7.26,8.39l14.06-0.25l17.27,21.08l1.84-0.77
		l-1.7-17.14c1.8,0.77,5.9,2.63,5.94,2.65l0.08,0.04l10.7-1.61l12.14-7.47l1.75-7.77l5.88-2.5l4.11-11.25L116.26,43.11z
		 M117.86,53.77l-3.5,9.56l-4.52,1.92l-7.44-16.03l12.18-4.2L117.86,53.77z M61.87,63.2l7.48,9.03l-6.92,4.01l-13.27,0.24
		l-5.93-6.85L61.87,63.2z M82.27,39.35l5.18-17.08l4.51,9.72L82.27,39.35z M93.77,30.6l-4.24-9.13l10.01,4.74L93.77,30.6z
		 M94.74,32.67l6.74-5.13l11.94,15.52l-11.95,4.12L94.74,32.67z M93.56,67.97l7.24-16.91l6.85,14.77L93.56,67.97z M89.92,70.79
		L85.25,81.7c-0.67-0.3-1.56-0.71-2.46-1.11c-2.83-1.25-3.7-1.56-4.08-1.65c-0.65-0.55-2.82-2.79-5.42-5.61L89.92,70.79z
		 M70.83,73.96c0.65,0.71,1.75,1.9,2.87,3.09c1.03,1.1,1.87,1.97,2.51,2.6c0.49,0.48,0.82,0.8,1.08,1.01l1.44,14.44L64.44,77.66
		L70.83,73.96z M73.97,59.03l-3.39,11.19l-6.46-7.8L73.97,59.03z M56.37,28.69l-18.68,1.83l-4.85-5.85l11.66-3.44l19.39-4.46
		L56.37,28.69z M54.86,31.09l-7.22,11.44l-8.22-9.92L54.86,31.09z M85.8,19.99l-6.27,20.7L58.61,29.34l8.22-13.02L85.8,19.99z
		 M77.38,55.49l3.78-12.49l11.75-8.94l6.43,13.86L77.38,55.49z M98.58,50.54l-7.63,17.82l-18.32,2.8l3.94-13.03L98.58,50.54z
		 M62.6,60.58L49.14,44.34l8.27-13.11l21.44,11.65l-4.09,13.51L62.6,60.58z M18.64,37.86l4.82-3.69l13.27-1.3l9.41,11.35
		l-14.58,10.4L18.64,37.86z M31.09,57.69l8.26,10.72l-7.15,1.66L21.83,64.3L31.09,57.69z M47.57,45.94l12.77,15.42L41.7,67.8
		l-8.78-11.4L47.57,45.94z M87.64,81.79l4.88-11.39l15.32-2.34l-1.31,5.81L95.58,80.6L87.64,81.79z M25.74,31.7l5.15-5.89l4.13,4.99
		L25.74,31.7z M29.74,55.92l-9.34,6.66l-3.58-13.03l1.05-9.04L29.74,55.92z"/>
</g>
</svg>
